<?xml version="1.0" standalone="no"?> <!DOCTYPE svg PUBLIC "-//W3C//DTD SVG 1.0//EN" "http://www.w3.org/TR/2001/REC-SVG-20010904/DTD/svg10.dtd" > <svg xmlns="http://www.w3.org/2000/svg" width="100%" height="100%">
<defs >
<font id="latoheavyitalic" horiz-adv-x="1073" ><font-face
    font-family="Lato"
    units-per-em="2000"
    panose-1="2 15 5 2 2 2 4 3 2 3"
    ascent="1974"
    descent="-426"
    alphabetic="0" />
<missing-glyph horiz-adv-x="1107" d="M235 1149Q294 1196 369 1227T546 1259Q619 1259 677 1240T774 1185T835 1100T856 990Q856 935 843 896T809 827T764 776T717 737T678 702T655 662L630 568H442L423 682Q416 720 426 747T456 795T501 835T549 873T586 917T601
974Q601 1003 582 1022T521 1041Q486 1041 464 1035T425 1022T394 1008T364 1002Q327 1002 308 1034L235 1149ZM380 321Q380 351 391 377T422 423T468 454T527 466Q558 466 584 455T630 424T661 378T673 321Q673 291 662 265T631 219T585 188T527 177Q495 177 469
188T422 218T391 264T380 321ZM41 1451H1066V0H41V1451ZM111 74H987V1377H111V74Z" />
<glyph unicode=" " glyph-name="null" horiz-adv-x="425" />
<glyph unicode="!" glyph-name="null" horiz-adv-x="540" d="M491 1451L421 878Q410 786 389 698T341 512H161Q157 609 159 697T173 878L243 1451H491ZM58 145Q58 178 70 207T104 258T155 292T220 305Q254 305 284 293T336 259T370 208T383 145Q383 111 371 82T336
32T284 -2T220 -14Q185 -14 156 -2T105 31T71 82T58 145Z" />
<glyph unicode="&quot;" glyph-name="null" horiz-adv-x="763" d="M422 1450L386 1162L343 1005Q330 958 307 933T238 908Q200 908 182 933T160 1005L155 1162L191 1450H422ZM774 1450L738 1162L695 1005Q682 958 659 933T590 908Q552 908 534 933T512 1005L507
1162L543 1450H774Z" />
<glyph unicode="#" glyph-name="null" horiz-adv-x="1160" d="M724 859H531L448 592H643L724 859ZM1192 1046L1157 937Q1145 896 1116 878T1030 859H942L860 592H992Q1032 592 1047 569T1047 486L1022 404H811L687 0H563Q545 0 531 8T507 32T496 66T502 108L593
404H400L306 95Q299 69 286 51T255 22T217 5T176 0H57L182 404H75Q34 404 19 428T20 510L45 592H231L313 859H102L136 967Q149 1008 178 1027T265 1046H362L459 1362Q473 1403 506 1426T582 1450H705L580 1046H773L897 1450H1016Q1036 1450 1052 1443T1078 1424T1090
1396T1087 1360L991 1046H1192Z" />
<glyph unicode="$" glyph-name="null" horiz-adv-x="1160" d="M585 205Q698 219 755 279T813 435Q813 466 802 489T772 531T725 564T666 590L585 205ZM640 1241Q581 1234 540 1217T473 1174T435 1117T423 1050Q423 1020 433 996T463 953T508 918T566 889L640 1241ZM718
837Q782 817 846 792T960 730T1041 637T1073 499Q1073 400 1036 311T930 152T762 39T539 -14L509 -156Q507 -168 500 -179T483 -199T459 -213T430 -219H332L376 -8Q320 0 267 16T165 56T76 110T4 175L102 295Q114 311 133 320T172 330Q195 330 217 316T268 281T334
241T422 209L513 638Q450 657 388 681T276 745T197 844T166 992Q166 1080 202 1163T305 1310T469 1416T687 1463L712 1583Q714 1596 721 1608T739 1629T763 1643T791 1649H889L848 1454Q952 1436 1024 1392T1145 1295L1069 1199Q1052 1176 1036 1167T997 1157Q982
1157 963 1166T919 1187T866 1213T802 1236L718 837Z" />
<glyph unicode="%" glyph-name="null" horiz-adv-x="1537" d="M767 1152Q767 1058 736 982T653 852T536 769T401 740Q339 740 289 762T202 824T146 922T126 1048Q126 1142 154 1219T232 1350T348 1434T491 1464Q553 1464 604 1442T691 1379T747 1281T767 1152ZM562
1150Q562 1190 555 1217T536 1262T506 1288T469 1296Q439 1296 414 1283T370 1240T341 1163T331 1048Q331 1010 337 984T356 941T385 917T422 910Q452 910 477 922T521 962T551 1036T562 1150ZM1229 1409Q1244 1424 1264 1437T1319 1450H1513L336 39Q321 22 301
11T251 0H54L1229 1409ZM1438 395Q1438 300 1407 224T1324 94T1207 11T1072 -18Q1010 -18 960 4T873 66T818 163T798 288Q798 383 826 460T904 592T1019 676T1162 706Q1224 706 1275 684T1362 621T1418 523T1438 395ZM1233 393Q1233 472 1207 504T1140 536Q1110
536 1085 523T1041 480T1012 403T1002 288Q1002 213 1027 182T1094 151Q1124 151 1149 163T1193 204T1222 279T1233 393Z" />
<glyph unicode="&amp;" glyph-name="null" horiz-adv-x="1346" d="M450 660Q373 603 342 535T311 389Q311 299 356 246T497 192Q560 192 619 216T731 283L450 660ZM1278 0H1047Q1015 0 992 4T951 17T918 40T887 75L851 123Q760 57 657 21T441 -16Q345 -16 270
10T143 84T64 201T37 355Q37 431 61 498T127 623T228 726T354 805Q323 867 310 927T297 1044Q297 1129 327 1206T414 1340T550 1432T732 1466Q818 1466 883 1439T992 1367T1057 1263T1078 1138L918 1108Q885 1101 868 1109T841 1148Q827 1201 794 1233T708 1266Q670
1266 640 1250T588 1205T556 1140T544 1060Q544 1016 560 969T614 866L899 494Q929 551 951 613T986 742Q991 767 1004 782T1043 798H1231Q1213 659 1164 536T1039 312L1278 0Z" />
<glyph unicode="&apos;" glyph-name="null" horiz-adv-x="411" d="M422 1450L386 1162L343 1005Q330 958 307 933T238 908Q200 908 182 933T160 1005L155 1162L191 1450H422Z" />
<glyph unicode="(" glyph-name="null" horiz-adv-x="540" d="M292 431Q292 363 297 288T313 136T340 -13T377 -148Q385 -170 385 -186T379 -214T363 -235T340 -251L214 -320Q174 -236 145 -144T98 43T70 231T61 411Q61 564 80 707T145 992T263 1277T445 1574L556
1505Q566 1498 574 1489T585 1468T584 1440T566 1402Q504 1294 454 1181T367 948T312 699T292 431Z" />
<glyph unicode=")" glyph-name="null" horiz-adv-x="539" d="M250 823Q250 891 245 966T228 1118T201 1267T165 1402Q157 1423 157 1439T163 1468T179 1489T202 1505L328 1574Q368 1490 397 1398T444 1211T472 1024T481 843Q481 690 462 547T397 262T278 -23T95
-320L-14 -251Q-24 -244 -32 -235T-43 -214T-42 -186T-24 -148Q38 -40 88 74T175 308T230 557T250 823Z" />
<glyph unicode="*" glyph-name="null" horiz-adv-x="793" d="M637 1203Q596 1181 560 1175Q578 1172 595 1164T630 1145L756 1053L683 950L555 1040Q540 1051 527 1061T502 1086Q511 1052 505 1012L483 830H357L380 1011Q382 1031 387 1049T400 1084Q386 1072
371 1062T337 1040L188 950L139 1055L288 1145Q307 1156 326 1164T365 1175Q347 1177 330 1184T296 1203L168 1295L243 1400L371 1308Q386 1298 399 1288T423 1263Q415 1298 420 1336L443 1518H568L546 1338Q543 1318 538 1299T525 1262Q538 1276 554 1287T589
1308L738 1399L786 1294L637 1203Z" />
<glyph unicode="+" glyph-name="null" horiz-adv-x="1160" d="M1065 575H682L632 168H415L466 575H85L110 769H490L540 1174H756L706 769H1090L1065 575Z" />
<glyph unicode="," glyph-name="null" horiz-adv-x="479" d="M61 -246Q50 -237 46 -228T41 -207Q41 -192 58 -172T97 -127T141 -69T172 4Q139 5 112 18T66 52T36 101T25 163Q25 193 36 219T68 264T116 294T180 305Q221 305 251 291T302 252T333 196T343 127Q343
78 328 24T283 -86T210 -193T109 -289L61 -246Z" />
<glyph unicode="-" glyph-name="null" horiz-adv-x="691" d="M112 714H602L574 496H85L112 714Z" />
<glyph unicode="." glyph-name="null" horiz-adv-x="479" d="M23 145Q23 178 35 207T69 258T121 292T186 305Q220 305 249 293T301 259T335 208T348 145Q348 111 336 82T301 32T250 -2T186 -14Q151 -14 121 -2T70 31T36 82T23 145Z" />
<glyph unicode="/" glyph-name="null" horiz-adv-x="869" d="M230 -1Q218 -25 201 -43T163 -73T121 -91T79 -98H-34L659 1365Q682 1408 720 1432T806 1457H918L230 -1Z" />
<glyph unicode="0" glyph-name="null" horiz-adv-x="1160" d="M1099 884Q1099 656 1052 487T923 206T733 39T501 -16Q409 -16 333 20T202 129T117 311T87 566Q87 794 133 963T261 1243T450 1410T683 1466Q775 1466 851 1430T983 1321T1068 1139T1099 884ZM826
898Q826 998 812 1065T775 1173T720 1231T655 1249Q600 1249 547 1215T452 1100T385 885T359 550Q359 450 372 383T409 276T463 218T527 201Q581 201 634 234T730 348T799 562T826 898Z" />
<glyph unicode="1" glyph-name="null" horiz-adv-x="1160" d="M961 195L936 0H182L207 195H468L567 1010Q570 1035 574 1060T583 1111L398 952Q377 937 358 934T323 933T296 944T279 961L209 1074L669 1452H888L734 195H961Z" />
<glyph unicode="2" glyph-name="null" horiz-adv-x="1160" d="M902 243Q945 243 967 219T984 156L964 0H32L43 87Q47 113 60 142T103 195L548 630Q614 694 662 749T741 858T787 965T802 1081Q802 1160 765 1203T656 1246Q621 1246 591 1234T535 1201T489 1152T457
1090Q433 1042 402 1026T318 1019L180 1043Q208 1149 258 1228T377 1360T527 1439T700 1466Q788 1466 858 1440T976 1366T1051 1252T1077 1105Q1077 1013 1051 938T979 795T874 665T747 536L413 207Q467 224 521 233T621 243H902Z" />
<glyph unicode="3" glyph-name="null" horiz-adv-x="1160" d="M186 1043Q214 1149 264 1228T383 1360T533 1439T706 1466Q795 1466 863 1440T978 1369T1049 1264T1073 1134Q1073 1054 1057 994T1008 889T929 814T820 765Q1018 690 1018 482Q1018 401 998 333T942
210T857 112T749 42T626 -1T494 -16Q397 -16 325 8T202 81T118 201T66 368L190 417Q239 436 277 427T329 385Q344 348 361 315T400 258T451 219T518 204Q573 204 617 226T691 287T737 376T753 481Q753 518 742 548T702 601T621 636T487 649L511 836Q596 836 653
852T745 900T794 978T809 1083Q809 1161 772 1203T662 1246Q627 1246 597 1234T540 1201T495 1152T463 1090Q439 1042 408 1026T323 1019L186 1043Z" />
<glyph unicode="4" glyph-name="null" horiz-adv-x="1160" d="M683 551L737 1000Q741 1028 746 1059T759 1123L312 551H683ZM1063 551L1044 400Q1042 379 1026 364T985 348H890L847 0H616L658 348H111Q86 348 68 364T48 404L37 538L773 1451H1025L915 551H1063Z" />
<glyph unicode="5" glyph-name="null" horiz-adv-x="1160" d="M1077 1450L1063 1339Q1056 1283 1016 1248T891 1213H559L479 930Q521 938 558 942T631 946Q727 946 798 916T917 834T989 712T1013 563Q1013 435 969 329T847 146T664 27T438 -16Q373 -16 317 -2T213
37T126 92T55 159L151 270Q182 305 223 305Q249 305 271 289T320 254T386 219T481 203Q550 203 600 230T682 302T730 406T745 529Q745 624 695 678T547 732Q454 732 360 694L200 740L401 1450H1077Z" />
<glyph unicode="6" glyph-name="null" horiz-adv-x="1067" d="M530 198Q582 198 628 220T710 282T765 376T785 496Q785 597 734 655T591 713Q540 713 495 691T417 629T364 534T345 411Q345 364 356 325T391 257T448 214T530 198ZM552 879Q587 893 626 901T709
909Q776 909 838 886T949 816T1026 699T1055 537Q1055 423 1014 323T899 147T726 28T508 -16Q409 -16 332 16T201 106T121 244T93 421Q93 488 106 551T146 677T213 802T306 931L669 1388Q691 1414 730 1432T818 1450H1055L595 927L552 879Z" />
<glyph unicode="7" glyph-name="null" horiz-adv-x="1160" d="M1157 1450L1143 1337Q1136 1286 1121 1255T1093 1202L479 89Q456 52 420 26T328 0H135L758 1089Q782 1126 806 1156T858 1213H253Q230 1213 214 1231T200 1273L222 1450H1157Z" />
<glyph unicode="8" glyph-name="null" horiz-adv-x="1160" d="M527 188Q585 188 628 209T701 266T744 354T758 465Q758 553 715 600T583 647Q476 647 415 582T353 376Q353 336 363 302T395 243T449 203T527 188ZM660 1269Q608 1269 571 1249T509 1196T474 1118T462
1025Q462 992 469 961T493 906T538 868T608 853Q659 853 697 872T759 925T796 1004T808 1102Q808 1135 800 1165T773 1218T727 1255T660 1269ZM834 755Q937 715 984 640T1031 462Q1031 353 992 265T882 114T714 18T502 -16Q405 -16 327 10T193 86T108 204T78 358Q78
430 94 493T144 607T232 696T361 759Q282 799 243 867T204 1027Q204 1121 241 1201T343 1340T495 1432T684 1466Q771 1466 841 1439T962 1366T1040 1255T1068 1118Q1068 989 1010 896T834 755Z" />
<glyph unicode="9" glyph-name="null" horiz-adv-x="1160" d="M422 966Q422 873 465 823T593 772Q648 772 691 793T765 851T812 940T829 1050Q829 1146 780 1199T650 1253Q599 1253 557 1232T485 1173T439 1082T422 966ZM622 559Q639 578 653 595T682 631Q587
576 474 576Q413 576 355 598T252 666T180 778T152 934Q152 1043 192 1140T302 1309T469 1424T680 1466Q776 1466 851 1436T977 1350T1055 1219T1082 1053Q1082 975 1068 906T1026 774T959 650T872 526L522 60Q501 34 463 17T378 0H132L622 559Z" />
<glyph unicode=":" glyph-name="null" horiz-adv-x="526" d="M47 145Q47 178 59 207T93 258T145 292T210 305Q244 305 273 293T325 259T359 208T372 145Q372 111 360 82T325 32T274 -2T210 -14Q175 -14 145 -2T94 31T60 82T47 145ZM125 845Q125 878 137 907T171
958T223 992T288 1005Q322 1005 351 993T403 959T437 908T450 845Q450 811 438 782T403 732T352 698T288 686Q253 686 223 698T172 731T138 782T125 845Z" />
<glyph unicode=";" glyph-name="null" horiz-adv-x="550" d="M99 -246Q88 -237 84 -228T79 -207Q79 -192 96 -172T135 -127T179 -69T210 4Q177 5 150 18T104 52T74 101T63 163Q63 193 74 219T106 264T154 294T218 305Q259 305 289 291T340 252T371 196T381 127Q381
78 366 24T321 -86T248 -193T147 -289L99 -246ZM136 845Q136 878 148 907T182 958T234 992T299 1005Q333 1005 362 993T414 959T448 908T461 845Q461 811 449 782T414 732T363 698T299 686Q264 686 234 698T183 731T149 782T136 845Z" />
<glyph unicode="&lt;" glyph-name="null" horiz-adv-x="1160" d="M1016 1147L992 953Q989 932 976 914T936 884L589 712Q563 700 535 691T475 674Q533 661 579 636L887 465Q910 453 918 435T924 395L899 201L151 620L154 647L164 729L1016 1147Z" />
<glyph unicode="=" glyph-name="null" horiz-adv-x="1160" d="M129 591H1023L998 397H104L129 591ZM174 947H1066L1042 753H149L174 947Z" />
<glyph unicode="&gt;" glyph-name="null" horiz-adv-x="1160" d="M1021 701L1011 620L158 201L183 395Q186 417 198 435T238 465L585 636Q611 648 639 657T700 674Q641 688 595 712L288 884Q265 896 257 914T251 953L275 1147L1024 729L1021 701Z" />
<glyph unicode="?" glyph-name="null" horiz-adv-x="871" d="M146 1317Q183 1348 225 1375T315 1422T416 1454T530 1466Q612 1466 674 1443T777 1380T840 1287T861 1174Q861 1089 839 1031T783 930T708 857T629 797T559 735T514 657L472 512H289L291 674Q292 725
316 764T376 837T454 901T531 964T591 1035T615 1124Q615 1184 583 1219T481 1254Q431 1254 396 1242T334 1215T289 1188T253 1176Q233 1176 223 1183T203 1209L146 1317ZM194 145Q194 178 206 207T241 258T292 292T357 305Q391 305 421 293T473 259T507 208T520
145Q520 111 508 82T473 32T421 -2T357 -14Q322 -14 293 -2T241 31T207 82T194 145Z" />
<glyph unicode="@" glyph-name="null" horiz-adv-x="1547" d="M948 800Q925 804 897 804Q842 804 791 775T699 696T635 584T610 454Q610 406 628 380T682 353Q703 353 725 360T768 387T810 438T846 520L948 800ZM1052 547Q1032 486 1028 447T1030 385T1054 354T1095
345Q1137 345 1175 379T1242 472T1288 610T1305 782Q1305 888 1276 969T1192 1106T1059 1190T882 1219Q750 1219 637 1163T441 1007T311 771T264 477Q264 343 300 241T403 69T562 -36T770 -72Q842 -72 903 -64T1013 -43T1100 -15T1162 16Q1187 29 1205 31T1235
28T1256 11T1268 -14L1288 -87Q1185 -155 1052 -198T751 -241Q596 -241 471 -191T257 -49T120 175T72 468Q72 592 102 708T186 927T317 1113T485 1258T684 1352T904 1386Q1026 1386 1133 1344T1320 1223T1446 1032T1493 782Q1493 657 1458 548T1360 357T1215 230T1036
183Q1006 183 979 190T930 212T892 252T869 311Q806 242 742 213T607 184Q555 184 517 202T454 253T416 330T403 426Q403 487 419 550T466 674T545 787T654 879T792 942T961 965Q1000 965 1031 962T1090 954T1141 940T1189 920L1052 547Z" />
<glyph unicode="A" glyph-name="null" horiz-adv-x="1315" d="M848 549L762 1008Q755 1044 746 1093T729 1199Q707 1142 686 1093T649 1007L452 549H848ZM1250 0H1026Q988 0 967 18T938 65L885 348H366L244 65Q231 39 204 20T142 0H-86L612 1451H908L1250 0Z" />
<glyph unicode="B" glyph-name="null" horiz-adv-x="1238" d="M616 222Q681 222 727 240T802 291T845 369T859 469Q859 506 849 535T815 586T754 618T663 630H434L384 222H616ZM508 1231L458 826H634Q695 826 743 839T826 882T877 958T895 1069Q895 1156 848 1193T700
1231H508ZM727 1451Q850 1451 938 1427T1082 1360T1164 1255T1190 1118Q1190 1057 1174 1001T1124 898T1036 812T908 748Q1029 716 1087 647T1145 473Q1145 373 1107 287T998 137T825 37T593 0H68L247 1451H727Z" />
<glyph unicode="C" glyph-name="null" horiz-adv-x="1238" d="M689 226Q747 226 790 235T864 258T918 288T957 318T988 341T1017 350Q1031 350 1040 345T1055 334L1156 210Q1062 100 933 42T639 -16Q504 -16 399 32T221 164T112 364T74 616Q74 741 101 852T179
1058T299 1229T456 1357T642 1438T849 1467Q929 1467 995 1452T1115 1411T1211 1347T1287 1264L1186 1145Q1175 1132 1161 1122T1123 1112Q1100 1112 1080 1129T1031 1167T956 1205T835 1223Q736 1223 651 1182T504 1066T406 882T370 640Q370 542 394 466T461 336T562
254T689 226Z" />
<glyph unicode="D" glyph-name="null" horiz-adv-x="1417" d="M1369 821Q1369 702 1343 595T1267 396T1147 231T990 107T800 28T584 0H68L247 1451H763Q903 1451 1015 1404T1206 1272T1327 1073T1369 821ZM1072 814Q1072 908 1050 984T984 1113T879 1196T735 1225H510L388
227H612Q717 227 802 268T947 385T1039 569T1072 814Z" />
<glyph unicode="E" glyph-name="null" horiz-adv-x="1072" d="M510 1224L463 840H900L871 621H436L387 227H952L924 0H68L247 1451H1101L1072 1224H510Z" />
<glyph unicode="F" glyph-name="null" horiz-adv-x="1063" d="M510 1224L459 810H932L901 583H431L359 0H68L247 1451H1101L1072 1224H510Z" />
<glyph unicode="G" glyph-name="null" horiz-adv-x="1353" d="M807 734H1274L1200 140Q1144 99 1085 70T961 22T823 -7T669 -16Q535 -16 426 32T238 167T117 372T74 629Q74 751 101 860T178 1063T299 1230T456 1357T644 1438T855 1467Q945 1467 1018 1451T1151
1407T1256 1343T1339 1266L1245 1148Q1222 1116 1190 1109T1124 1124Q1092 1145 1063 1163T1000 1195T926 1215T834 1223Q732 1223 647 1181T500 1063T404 878T370 639Q370 539 395 460T466 325T576 241T719 211Q791 211 846 224T953 262L984 521H840Q813 521 799
535T788 572L807 734Z" />
<glyph unicode="H" glyph-name="null" horiz-adv-x="1441" d="M1401 1451L1222 0H930L1007 628H436L359 0H68L247 1451H538L461 830H1032L1109 1451H1401Z" />
<glyph unicode="I" glyph-name="null" horiz-adv-x="577" d="M359 0H68L245 1451H536L359 0Z" />
<glyph unicode="J" glyph-name="null" horiz-adv-x="825" d="M681 511Q666 390 627 293T523 127T371 21T169 -16Q116 -16 67 -10T-35 11L-14 179Q-11 201 2 216T44 232Q67 232 97 226T169 219Q212 219 249 235T314 285T362 373T391 504L506 1451H796L681 511Z" />
<glyph unicode="K" glyph-name="null" horiz-adv-x="1303" d="M460 847H512Q581 847 617 893L1002 1391Q1028 1426 1060 1438T1137 1451H1387L899 850Q876 821 853 802T805 770Q837 758 860 736T901 677L1242 0H985Q935 0 913 14T878 55L613 582Q600 610 577 621T510
632H434L356 0H68L245 1452H535L460 847Z" />
<glyph unicode="L" glyph-name="null" horiz-adv-x="972" d="M896 235L867 0H68L247 1451H536L386 235H896Z" />
<glyph unicode="M" glyph-name="null" horiz-adv-x="1772" d="M1732 1451L1553 0H1299L1408 899Q1412 925 1418 957T1431 1022L961 230Q942 200 914 185T852 169H812Q779 169 754 184T718 230L438 1025Q437 992 436 961T431 904L324 0H68L247 1451H466Q485 1451
497 1450T520 1443T538 1429T557 1406L837 606Q847 578 855 549T870 489Q884 519 899 548T932 606L1409 1406Q1422 1420 1432 1429T1454 1443T1479 1449T1511 1451H1732Z" />
<glyph unicode="N" glyph-name="null" horiz-adv-x="1441" d="M1401 1451L1222 0H1072Q1038 0 1017 11T977 49L440 997Q438 971 436 947T431 901L324 0H68L247 1451H399Q418 1451 431 1450T453 1444T471 1430T488 1406L1028 457Q1030 489 1033 519T1039 575L1145
1451H1401Z" />
<glyph unicode="O" glyph-name="null" horiz-adv-x="1513" d="M1467 821Q1467 702 1440 594T1364 392T1243 224T1085 96T895 13T679 -16Q538 -16 426 33T236 169T116 374T74 629Q74 748 101 856T177 1058T298 1226T456 1355T646 1438T862 1467Q1003 1467 1115
1417T1305 1280T1425 1075T1467 821ZM1170 814Q1170 908 1147 985T1080 1117T972 1202T827 1232Q722 1232 638 1189T494 1068T402 880T370 636Q370 541 393 465T459 333T566 249T711 219Q816 219 901 261T1045 382T1137 569T1170 814Z" />
<glyph unicode="P" glyph-name="null" horiz-adv-x="1178" d="M615 724Q689 724 741 746T827 807T875 901T891 1022Q891 1068 878 1106T839 1173T772 1216T676 1231H508L445 724H615ZM704 1451Q830 1451 920 1421T1068 1336T1154 1208T1182 1047Q1182 929 1146
830T1036 658T850 544T587 503H418L356 0H68L245 1451H704Z" />
<glyph unicode="Q" glyph-name="null" horiz-adv-x="1513" d="M370 636Q370 541 393 465T459 333T566 249T711 219Q816 219 901 261T1045 382T1137 569T1170 814Q1170 908 1147 985T1080 1117T972 1202T827 1232Q722 1232 638 1189T494 1068T402 880T370 636ZM858
4Q770 -16 679 -16Q538 -16 426 33T236 169T116 374T74 629Q74 748 101 856T177 1058T298 1226T456 1355T646 1438T862 1467Q1003 1467 1115 1417T1305 1280T1425 1075T1467 821Q1467 708 1443 605T1373 411T1263 247T1118 117L1408 -280H1171Q1120 -280 1081 -266T1012
-216L858 4Z" />
<glyph unicode="R" glyph-name="null" horiz-adv-x="1212" d="M585 761Q660 761 713 783T800 843T850 932T866 1040Q866 1129 812 1180T643 1231H508L450 761H585ZM670 1451Q799 1451 890 1424T1040 1348T1126 1232T1154 1085Q1154 1003 1132 930T1066 797T962
691T821 617Q847 602 868 580T906 527L1143 0H882Q807 0 784 56L597 508Q585 534 567 546T513 558H425L356 0H68L245 1451H670Z" />
<glyph unicode="S" glyph-name="null" horiz-adv-x="1038" d="M947 1176Q931 1155 916 1145T879 1134Q858 1134 836 1149T785 1184T718 1218T626 1234Q575 1234 537 1220T472 1179T433 1118T420 1043Q420 1000 443 971T503 920T589 881T688 843T786 797T872 733T933
640T956 509Q956 402 919 307T812 140T643 26T420 -16Q357 -16 295 -2T176 37T72 97T-10 175L93 312Q105 326 123 336T161 347Q187 347 212 327T270 282T347 238T457 217Q560 217 617 274T675 438Q675 486 652 516T592 568T508 605T410 639T313 682T228 746T168
841T145 981Q145 1076 180 1163T282 1318T442 1426T653 1466Q713 1466 769 1453T875 1418T964 1364T1034 1297L947 1176Z" />
<glyph unicode="T" glyph-name="null" horiz-adv-x="1123" d="M1164 1217H780L630 0H342L490 1217H105L133 1451H1194L1164 1217Z" />
<glyph unicode="U" glyph-name="null" horiz-adv-x="1389" d="M647 229Q713 229 768 254T864 325T932 437T968 583L1075 1451H1364L1258 583Q1242 453 1189 343T1053 154T860 29T617 -16Q485 -16 386 29T223 153T134 343T124 583L228 1451H518L412 583Q402 503
413 438T454 326T532 254T647 229Z" />
<glyph unicode="V" glyph-name="null" horiz-adv-x="1314" d="M1428 1451L713 0H450L91 1451H324Q362 1451 384 1433T411 1387L586 530Q598 485 608 432T625 320Q665 439 711 530L1090 1387Q1101 1410 1129 1430T1194 1451H1428Z" />
<glyph unicode="W" glyph-name="null" horiz-adv-x="1948" d="M2042 1451L1449 0H1187L1037 965Q1033 985 1030 1010T1025 1062Q1005 1008 988 965L603 0H342L106 1451H333Q371 1451 393 1434T421 1387L536 545Q539 510 542 471T547 389Q561 432 575 471T604 545L936
1387Q942 1399 951 1410T974 1431T1004 1445T1038 1451H1106Q1144 1451 1165 1433T1195 1387L1325 545Q1330 513 1335 475T1343 395Q1355 437 1367 474T1391 545L1709 1387Q1717 1412 1747 1431T1813 1451H2042Z" />
<glyph unicode="X" glyph-name="null" horiz-adv-x="1279" d="M862 788L1219 0H959Q930 0 914 15T890 48L656 608Q652 600 648 593T638 579L287 48Q270 22 248 11T199 0H-91L462 775L141 1451H404Q433 1451 445 1444T466 1416L674 935Q679 946 685 955T698 976L983
1412Q997 1432 1011 1441T1047 1451H1350L862 788Z" />
<glyph unicode="Y" glyph-name="null" horiz-adv-x="1236" d="M757 563L687 0H397L467 558L91 1451H348Q386 1451 407 1434T438 1387L603 914Q617 874 627 837T644 765Q661 800 681 836T726 914L1009 1387Q1024 1410 1049 1430T1111 1451H1351L757 563Z" />
<glyph unicode="Z" glyph-name="null" horiz-adv-x="1126" d="M1170 1363Q1167 1344 1159 1328T1139 1295L369 227H1014L986 0H-41L-31 87Q-28 106 -20 121T0 154L772 1224H157L185 1451H1183L1170 1363Z" />
<glyph unicode="[" glyph-name="null" horiz-adv-x="604" d="M657 1446Q654 1420 632 1401T580 1382H471L283 -144H394Q424 -144 441 -163T454 -210L441 -312H41L269 1550H669L657 1446Z" />
<glyph unicode="\" glyph-name="null" horiz-adv-x="862" d="M154 1457H266Q314 1457 346 1433T390 1365L723 -98H611Q590 -98 570 -92T533 -73T503 -43T484 -1L154 1457Z" />
<glyph unicode="]" glyph-name="null" horiz-adv-x="604" d="M333 -312H-67L-53 -210Q-50 -182 -29 -163T23 -144H133L321 1382H210Q180 1382 163 1401T149 1446L163 1550H563L333 -312Z" />
<glyph unicode="^" glyph-name="null" horiz-adv-x="1160" d="M1096 773H894Q870 773 854 785T827 817L684 1083Q667 1112 655 1139T632 1194Q623 1167 612 1140T583 1083L444 817Q434 799 417 786T373 773H160L538 1451H718L1096 773Z" />
<glyph unicode="_" glyph-name="null" horiz-adv-x="890" d="M719 -127L697 -296H-29L-7 -127H719Z" />
<glyph unicode="`" glyph-name="null" horiz-adv-x="736" d="M457 1467Q496 1467 514 1453T544 1411L644 1167H500Q471 1167 455 1175T422 1205L219 1467H457Z" />
<glyph unicode="a" glyph-name="null" horiz-adv-x="1051" d="M706 853Q697 854 688 854T670 854Q590 854 523 818T408 720T332 576T304 403Q304 299 336 253T420 206Q457 206 493 233T562 307T621 417T668 553L706 853ZM638 194Q572 97 491 41T311 -15Q254 -15
203 7T112 75T51 190T28 353Q28 446 51 533T117 698T221 839T358 950T522 1021T709 1047Q781 1047 853 1037T995 1000L871 0H724Q698 0 681 7T653 26T638 54T634 89L638 194Z" />
<glyph unicode="b" glyph-name="null" horiz-adv-x="1086" d="M330 247Q362 216 402 204T481 191Q541 191 591 229T678 330T734 472T754 632Q754 736 722 785T632 834Q595 834 557 808T482 735T414 626T361 491L330 247ZM405 848Q475 941 560 994T742 1047Q806
1047 858 1024T948 954T1006 833T1027 660Q1027 571 1009 487T957 327T877 190T775 82T656 11T525 -15Q447 -15 387 15T285 97L279 74Q267 36 247 18T183 0H32L213 1491H484L405 848Z" />
<glyph unicode="c" glyph-name="null" horiz-adv-x="906" d="M837 182Q787 126 741 89T646 28T543 -5T424 -15Q334 -15 263 15T141 102T64 239T37 418Q37 544 78 657T192 857T365 995T585 1046Q688 1046 761 1010T891 900L802 797Q793 786 780 779T752 771Q734
771 720 780T689 801T646 821T580 831Q528 831 480 802T394 719T335 589T313 416Q313 307 360 251T484 194Q537 194 571 209T629 242T672 275T718 290Q732 290 744 284T767 266L837 182V182Z" />
<glyph unicode="d" glyph-name="null" horiz-adv-x="1088" d="M732 786Q700 816 660 828T581 841Q521 841 471 803T385 702T329 560T309 399Q309 296 341 247T430 198Q466 198 505 224T580 297T647 405T701 538L732 786ZM1090 1491L905 0H758Q732 0 715 7T687
26T673 54T669 89L674 206Q601 103 512 44T321 -15Q257 -15 204 8T114 78T56 199T35 372Q35 460 53 544T105 704T185 842T287 950T406 1021T538 1047Q605 1047 659 1024T754 961L820 1491H1090Z" />
<glyph unicode="e" glyph-name="null" horiz-adv-x="981" d="M575 856Q531 856 492 838T422 786T366 705T327 600Q438 616 506 634T612 674T662 721T675 775Q675 789 669 803T651 829T620 848T575 856ZM305 423Q305 194 498 194Q562 194 602 210T672 246T725 282T782
299Q796 299 808 293T831 275L901 191Q847 137 796 99T690 35T575 -3T443 -15Q352 -15 277 16T149 103T66 239T36 417Q36 499 54 577T106 725T188 853T299 954T434 1021T591 1045Q672 1045 734 1022T839 961T902 877T924 785Q924 716 896 658T798 555T608 477T305
426V423Z" />
<glyph unicode="f" glyph-name="null" horiz-adv-x="671" d="M470 833L375 46L322 -136Q305 -189 273 -218T180 -247H69L199 832L128 847Q102 854 86 869T74 915L88 1025H223L231 1093Q242 1181 278 1252T371 1373T502 1450T662 1477Q695 1477 724 1473T783 1459L758
1317Q753 1294 730 1288T681 1281Q642 1281 610 1271T553 1238T513 1177T491 1085L484 1025H705L679 833H470Z" />
<glyph unicode="g" glyph-name="null" horiz-adv-x="1020" d="M377 -172Q429 -172 471 -159T544 -123T592 -67T609 4Q609 15 609 24T607 43Q496 62 418 60T290 42T218 0T195 -58Q195 -114 238 -143T377 -172ZM465 490Q506 490 537 510T589 562T621 636T633 718Q633
788 602 826T508 865Q467 865 436 847T384 797T353 726T342 642Q342 570 373 530T465 490ZM1039 994L1027 906Q1020 854 974 836L877 807Q885 769 885 728Q885 662 866 615T824 526T781 443T762 343Q762 302 777 268T811 197T844 120T860 26Q859 -52 825 -121T726
-243T567 -326T354 -357Q257 -357 179 -337T47 -282T-37 -198T-66 -92Q-66 -19 -35 33T48 121T167 177T304 206T444 212T570 199Q564 226 564 257Q564 313 594 382Q556 356 507 342T386 327Q327 327 274 346T180 405T115 503T91 643Q91 719 119 791T204 921T345
1012T539 1047Q597 1047 649 1034T747 994H1039Z" />
<glyph unicode="h" glyph-name="null" horiz-adv-x="1091" d="M414 875Q487 963 570 1005T742 1047Q807 1047 859 1021T946 945T995 822T997 655L919 0H644L721 655Q733 748 712 787T636 827Q601 827 564 807T491 750T425 660T374 542L308 0H32L213 1491H489L414 875Z" />
<glyph unicode="i" glyph-name="null" horiz-adv-x="503" d="M437 1031L314 0H42L165 1031H437ZM497 1324Q497 1289 483 1259T445 1206T391 1170T328 1157Q296 1157 267 1170T215 1206T179 1259T165 1324Q165 1358 179 1388T215 1442T267 1478T329 1492Q362 1492
392 1479T446 1443T483 1390T497 1324Z" />
<glyph unicode="j" glyph-name="null" horiz-adv-x="501" d="M436 1031L308 -20Q299 -90 273 -151T202 -259T93 -332T-54 -359Q-96 -359 -125 -354T-184 -340L-158 -194Q-153 -174 -140 -166T-93 -158Q-60 -158 -38 -152T0 -129T24 -87T38 -20L166 1031H436ZM487
1324Q487 1289 473 1259T434 1206T380 1170T317 1157Q285 1157 256 1170T204 1206T168 1259T154 1324Q154 1358 168 1388T205 1442T257 1478T319 1492Q352 1492 382 1479T435 1443T473 1390T487 1324Z" />
<glyph unicode="k" glyph-name="null" horiz-adv-x="1023" d="M485 1491L381 645H405Q429 645 444 652T476 680L722 984Q740 1007 761 1019T812 1031H1059L742 655Q722 632 702 614T658 581Q678 565 691 544T717 497L950 0H711Q681 0 661 10T630 48L456 427Q445
451 433 458T392 465H359L302 0H30L214 1491H485Z" />
<glyph unicode="l" glyph-name="null" horiz-adv-x="489" d="M34 0L215 1491H487L305 0H34Z" />
<glyph unicode="m" glyph-name="null" horiz-adv-x="1591" d="M32 0L157 1032H299Q342 1032 366 1011T390 944L387 856Q455 953 532 1000T694 1047Q785 1047 841 987T910 812Q981 933 1065 990T1253 1047Q1318 1047 1368 1021T1451 945T1496 822T1496 655L1419
0H1147L1224 655Q1236 748 1219 786T1153 825Q1118 825 1086 807T1024 753T970 669T927 556L861 0H589L667 655Q678 748 662 786T597 825Q561 825 528 806T466 750T412 663T369 547L303 0H32Z" />
<glyph unicode="n" glyph-name="null" horiz-adv-x="1092" d="M386 835Q463 943 554 995T745 1047Q809 1047 861 1021T947 945T996 822T998 655L920 0H645L722 655Q734 748 713 786T639 825Q601 825 561 803T484 739T416 640T366 511L309 0H33L157 1032H298Q341
1032 365 1011T389 944L386 835Z" />
<glyph unicode="o" glyph-name="null" horiz-adv-x="1050" d="M465 192Q523 192 569 226T647 317T696 451T714 612Q714 732 677 785T562 839Q505 839 459 806T380 715T331 582T313 420Q313 302 350 247T465 192ZM441 -15Q355 -15 281 13T153 97T69 233T38 418Q38
553 82 668T201 868T376 999T587 1047Q673 1047 746 1019T874 935T959 798T990 613Q990 479 946 364T827 165T652 33T441 -15Z" />
<glyph unicode="p" glyph-name="null" horiz-adv-x="1087" d="M331 246Q363 216 403 204T481 191Q541 191 591 229T678 330T734 472T754 632Q754 736 722 785T633 834Q596 834 558 808T483 736T415 628T362 495L331 246ZM386 822Q459 926 549 986T742 1047Q806
1047 858 1024T948 954T1006 833T1027 660Q1027 571 1009 487T957 327T878 190T775 82T656 11T525 -15Q458 -15 404 8T310 71L260 -333H-8L158 1032H299Q342 1032 366 1011T390 944L386 822Z" />
<glyph unicode="q" glyph-name="null" horiz-adv-x="1052" d="M707 853Q697 854 688 854T671 854Q591 854 524 818T409 720T333 576T305 403Q305 299 336 253T421 206Q458 206 494 233T562 306T621 416T668 551L707 853ZM619 166Q556 81 480 33T312 -15Q255 -15
204 7T113 75T52 190T29 353Q29 446 52 533T118 698T222 839T359 950T523 1021T710 1047Q782 1047 854 1037T996 1000L829 -333H649Q623 -333 607 -324T581 -300T569 -268T568 -234L619 166Z" />
<glyph unicode="r" glyph-name="null" horiz-adv-x="716" d="M386 801Q425 873 468 924T559 1003T655 1036T754 1019L704 760Q645 785 594 781T499 741T420 636T359 462L303 0H32L157 1032H299Q342 1032 366 1011T390 944L386 801Z" />
<glyph unicode="s" glyph-name="null" horiz-adv-x="815" d="M729 827Q717 810 706 803T677 795Q658 795 640 805T598 826T546 848T476 858Q401 858 365 826T328 746Q328 707 357 684T430 642T525 604T620 555T693 478T722 358Q722 282 692 214T606 95T469 14T290
-16Q241 -16 195 -7T107 20T32 61T-25 111L43 214Q55 232 72 242T113 252Q135 252 153 240T193 213T245 186T325 173Q362 173 390 182T438 208T467 247T477 293Q477 337 448 361T376 403T281 438T187 484T114 559T85 682Q85 752 111 817T189 934T315 1016T490 1047Q591
1047 669 1013T800 925L729 827Z" />
<glyph unicode="t" glyph-name="null" horiz-adv-x="741" d="M122 216Q122 223 122 232T123 260T128 309T138 389L193 833H103Q83 833 71 847T62 889L75 997L231 1027L316 1294Q330 1339 377 1339H525L486 1025H727L704 833H463L410 404Q405 363 402 339T398 302T396
285T396 278Q396 243 412 223T460 202Q478 202 491 206T513 216T531 226T548 231Q561 231 567 226T579 207L639 75Q581 30 512 7T373 -16Q259 -16 193 45T122 216Z" />
<glyph unicode="u" glyph-name="null" horiz-adv-x="1091" d="M1034 1031L909 0H769Q671 0 671 93L674 186Q598 84 509 35T323 -15Q258 -15 206 11T120 87T72 209T70 376L147 1031H423L345 376Q334 283 354 245T429 206Q465 206 503 226T577 285T643 376T694 496L759
1031H1034Z" />
<glyph unicode="v" glyph-name="null" horiz-adv-x="994" d="M1045 1031L540 0H308L53 1031H280Q309 1031 325 1017T347 981L436 471Q445 417 450 366T459 262Q492 364 536 471L752 981Q762 1003 782 1017T827 1031H1045Z" />
<glyph unicode="w" glyph-name="null" horiz-adv-x="1488" d="M1525 1031L1102 0H888Q871 0 861 11T846 48L758 606Q752 646 749 687Q742 666 734 646T718 604L495 48Q475 0 436 0H230L58 1031H269Q296 1031 313 1017T336 981L382 471Q388 376 391 288Q408 333
425 378T462 471L663 983Q671 1004 691 1018T737 1032H855Q884 1032 901 1018T921 983L995 471Q1002 424 1007 379T1018 289Q1031 334 1045 378T1076 471L1250 981Q1258 1003 1278 1017T1323 1031H1525Z" />
<glyph unicode="x" glyph-name="null" horiz-adv-x="994" d="M664 558L925 0H674Q646 0 630 14T606 49L462 390Q452 368 439 349L231 49Q217 30 200 15T156 0H-87L319 558L84 1031H335Q363 1031 375 1024T395 998L524 709Q530 722 537 734T554 759L714 992Q739
1031 774 1031H1024L664 558Z" />
<glyph unicode="y" glyph-name="null" horiz-adv-x="994" d="M1048 1031L373 -277Q344 -333 286 -333H80L312 85L54 1031H286Q316 1031 331 1016T352 981L461 488Q467 461 471 434T478 380Q489 407 501 434T527 489L752 982Q763 1003 784 1017T827 1031H1048Z" />
<glyph unicode="z" glyph-name="null" horiz-adv-x="873" d="M868 1031L853 919Q851 890 838 864T808 818L326 208H757L732 0H-28L-14 114Q-12 131 0 157T31 206L519 823H99L124 1031H868Z" />
<glyph unicode="{" glyph-name="null" horiz-adv-x="585" d="M646 1550L632 1433Q630 1419 623 1410T607 1394T587 1385T570 1382H567Q505 1382 471 1337T428 1212Q422 1159 421 1112T419 1019T417 931T411 844Q403 763 358 702T237 618Q297 598 327 547T358 432Q358
374 346 319T319 210T292 99T279 -17Q279 -74 304 -109T380 -144H384Q391 -144 400 -147T417 -156T429 -173T432 -196L418 -312H369Q285 -312 225 -291T125 -231T66 -140T47 -21Q47 43 61 102T91 216T122 326T136 437Q136 484 115 513T47 543L66 695Q103 695 127
710T165 757T186 836T192 947Q192 960 192 979T190 1019T189 1060T188 1094Q188 1203 212 1288T287 1431T415 1520T599 1550H646Z" />
<glyph unicode="|" glyph-name="null" horiz-adv-x="548" d="M166 1552H380V-333H166V1552Z" />
<glyph unicode="}" glyph-name="null" horiz-adv-x="584" d="M217 1550Q300 1550 360 1529T460 1469T518 1377T537 1258Q537 1194 524 1136T494 1021T465 911T451 800Q451 754 470 725T538 695L520 543Q483 543 459 528T421 481T400 402T394 290Q394 277 394 258T395
219T395 178T396 144Q396 34 372 -50T297 -193T170 -282T-13 -312H-61L-45 -196Q-44 -183 -37 -173T-21 -157T-2 -147T16 -144H19Q81 -144 115 -99T158 26Q164 78 165 125T168 218T169 306T175 392Q179 432 193 468T229 534T281 586T349 619Q288 639 257 690T226
805Q226 862 239 917T267 1027T295 1138T308 1254Q308 1311 283 1346T206 1382H203Q195 1382 186 1385T169 1394T157 1409T154 1433L168 1550H217Z" />
<glyph unicode="~" glyph-name="null" horiz-adv-x="1160" d="M736 661Q789 661 817 694T846 791H1069Q1069 710 1048 646T987 535T888 465T754 440Q701 440 654 453T564 481T486 509T420 522Q368 522 340 489T310 392H88Q88 473 109 538T170 648T269 719T403
744Q456 744 503 731T593 703T671 674T736 661Z" />
</font>
</defs>
</svg>
